<?xml version="1.0" encoding="utf-8"?>
<!-- Generator: Adobe Illustrator 22.0.1, SVG Export Plug-In . SVG Version: 6.00 Build 0)  -->
<svg version="1.1" id="Layer_1" xmlns="http://www.w3.org/2000/svg" xmlns:xlink="http://www.w3.org/1999/xlink" x="0px" y="0px"
	 viewBox="0 0 20 20" style="enable-background:new 0 0 20 20;" xml:space="preserve">
<path d="M5.3,4.6C5.2,4.7,5.2,4.9,5.3,5c0,0,0,0,0,0l2.4,2.4c0.1,0.1,0.3,0.1,0.4,0C8.1,7.3,8.1,7.1,8,7L5.7,4.6
	C5.6,4.5,5.4,4.5,5.3,4.6z"/>
<path d="M12.9,5.9V2.6c0-0.1-0.1-0.3-0.3-0.3s-0.3,0.1-0.3,0.3v3.3c0,0.1,0.1,0.3,0.3,0.3S12.9,6.1,12.9,5.9z"/>
<path d="M8.8,1.2C8.7,1.1,8.6,1,8.5,1C8.3,1,8.2,1.2,8.3,1.3l0.8,3.2c0,0.1,0.2,0.2,0.3,0.2c0.1,0,0.2-0.2,0.2-0.3L8.8,1.2z"/>
<path d="M5.3,10.7c0.8,1.2,0.8,1.7,0.8,2.3c0,3.8,2.6,5,4.2,5.1c0.1,0,0.2,0,0.4,0c1.5,0,2.9-0.6,3.9-1.7l0.9-1l0,0l0.4-0.5
	c0.5-0.5,0.5-1.2,0-1.7c-0.2-0.2-0.4-0.3-0.6-0.3c0.2-0.6-0.2-1.2-0.8-1.3c-0.1,0-0.1,0-0.2,0c0-0.1,0.1-0.2,0.1-0.4
	c0-0.6-0.4-1.1-1-1.2l1.4-1.5c0.5-0.5,0.5-1.2,0-1.7c-0.5-0.5-1.2-0.5-1.7,0c0,0,0,0,0,0c-1.6,1.7-3.6,3.6-4.3,3.9
	c-0.5,0.2-0.6,0-0.9-0.5c-0.2-0.5-0.6-0.9-1-1.2c-0.5-0.4-1-0.4-1.5,0C4.9,9.4,4.9,10.1,5.3,10.7z M15,13.4c0.2,0,0.4,0.1,0.5,0.2
	c0.3,0.3,0.3,0.7,0,1c0,0,0,0,0,0L15,15c-0.2,0.1-0.5,0.1-0.7-0.1l0,0c-0.2-0.2-0.2-0.6-0.1-0.8L15,13.4L15,13.4z M14.6,12.2
	c0.2,0.2,0.2,0.5,0,0.7c0,0,0,0,0,0l0,0l-0.8,0.8c-0.2,0.1-0.5,0-0.6-0.1l0,0c-0.2-0.2-0.2-0.6,0-0.8c0.1-0.1,0.6-0.4,0.8-0.6
	C14.1,12,14.4,12,14.6,12.2L14.6,12.2z M13.6,10.7c0.1,0.1,0.2,0.3,0.2,0.5c0,0.2-0.1,0.4-0.3,0.6c-0.2,0.1-0.5,0.4-0.8,0.6
	c-0.2,0.1-0.5,0-0.6-0.2l0,0c-0.3-0.3-0.3-0.7,0-0.9l0.6-0.6C13,10.4,13.4,10.4,13.6,10.7L13.6,10.7z M5.8,9.4
	c0.3-0.2,0.5-0.2,0.8,0c0.3,0.3,0.6,0.7,0.8,1c0.1,0.2,0.3,0.4,0.5,0.6c0,0,0,0,0,0c0,0,0.5,0.6,0,1.4c-0.1,0.1,0,0.3,0.1,0.4
	c0.1,0.1,0.3,0,0.4-0.1c0.3-0.4,0.4-1,0.2-1.5c0.1,0,0.3-0.1,0.4-0.1c1-0.4,3.5-3,4.5-4.1C13.6,7.1,13.8,7,14,7
	c0.2,0,0.4,0.1,0.5,0.2c0.3,0.3,0.3,0.7,0,1c0,0,0,0,0,0l-2.7,2.7c-0.5,0.5-0.5,1.2,0,1.7c0,0,0,0,0,0l0,0c0.2,0.2,0.4,0.3,0.7,0.3
	c-0.1,0.4,0,0.8,0.3,1.1l0,0l0,0c0.2,0.2,0.5,0.3,0.8,0.3c0,0.3,0.1,0.7,0.3,0.9l0,0c0.2,0.2,0.3,0.3,0.6,0.3L14.1,16l0,0
	c-1,1-2.4,1.6-3.8,1.5c-0.7-0.1-1.3-0.3-1.9-0.7c0,0,0.1,0,0.1,0h0.1c0.7,0,1.3-0.4,1.8-1.2c0.1-0.1,0.1-0.3-0.1-0.4
	c-0.1-0.1-0.3-0.1-0.4,0.1c-0.4,0.6-0.9,0.9-1.4,1c-0.7,0-1.2-0.5-1.2-0.5c0,0,0,0,0,0c-0.4-0.7-0.7-1.6-0.7-2.8
	c0-0.7-0.1-1.3-0.9-2.6C5.5,10.1,5.4,9.7,5.8,9.4z"/>
<polygon points="9.9,6.4 9.3,6.5 9.8,6.9 9.7,7.5 10.2,7.2 10.7,7.5 10.6,6.9 11,6.5 10.4,6.4 10.2,5.9 "/>
<polygon points="10.8,3.2 11,3.6 11.2,3.2 11.6,3.2 11.3,2.9 11.4,2.4 11,2.6 10.6,2.4 10.7,2.9 10.3,3.1 "/>
<polygon points="7.2,3.1 6.9,2.7 6.9,3.2 6.5,3.4 6.9,3.6 7,4 7.3,3.7 7.7,3.7 7.5,3.4 7.7,3 "/>
</svg>
