<?xml version="1.0" encoding="utf-8"?>
<!-- Generator: Adobe Illustrator 22.0.1, SVG Export Plug-In . SVG Version: 6.00 Build 0)  -->
<svg version="1.1" id="Layer_1" xmlns="http://www.w3.org/2000/svg" xmlns:xlink="http://www.w3.org/1999/xlink" x="0px" y="0px"
	 viewBox="0 0 100 125" style="enable-background:new 0 0 100 125;" xml:space="preserve">
<path d="M89.5,51.3l-2.7-1.5c-2.5-1.4-4.6-3.4-5.9-6l-1.5-2.7c-0.3-0.6-1.4-0.6-1.8,0l-1.5,2.7c-1.4,2.5-3.4,4.6-5.9,6l-2.7,1.5
	c-0.3,0.2-0.5,0.5-0.5,0.9c0,0.4,0.2,0.7,0.5,0.9l2.7,1.5c2.5,1.4,4.6,3.4,5.9,6l1.5,2.7c0.2,0.3,0.5,0.5,0.9,0.5s0.7-0.2,0.9-0.5
	l1.5-2.7c1.4-2.5,3.4-4.6,5.9-6l2.7-1.5c0.3-0.2,0.5-0.5,0.5-0.9C90,51.8,89.8,51.5,89.5,51.3z M85.8,52.8c-2.8,1.6-5.2,3.9-6.7,6.8
	l-0.6,1.1l-0.6-1.1c-1.6-2.9-3.9-5.2-6.7-6.8l-1.1-0.6l1.1-0.6c2.8-1.6,5.2-3.9,6.7-6.8l0.6-1.1l0.6,1.1c1.6,2.9,3.9,5.2,6.7,6.8
	l1.1,0.6L85.8,52.8z"/>
<path d="M76.7,24.2l1,1.8c0.2,0.3,0.5,0.5,0.9,0.5c0.4,0,0.7-0.2,0.9-0.5l1-1.8c0.9-1.7,2.3-3,3.9-3.9l1.8-1
	c0.3-0.2,0.5-0.5,0.5-0.9s-0.2-0.7-0.5-0.9l-1.8-1c-1.7-0.9-3-2.3-3.9-3.9l-1-1.8c-0.4-0.6-1.4-0.6-1.8,0l-1,1.8
	c-0.9,1.7-2.3,3-3.9,3.9l-1.8,1c-0.3,0.2-0.5,0.5-0.5,0.9s0.2,0.7,0.5,0.9l1.8,1C74.4,21.2,75.7,22.5,76.7,24.2z M73.5,18.4l0.2-0.1
	c2-1.1,3.6-2.7,4.7-4.7l0.1-0.2l0.1,0.2c1.1,2,2.7,3.6,4.7,4.7l0.2,0.1l-0.2,0.1c-2,1.1-3.6,2.7-4.7,4.7l-0.1,0.2l-0.1-0.2
	c-1.1-2-2.7-3.6-4.7-4.7L73.5,18.4z"/>
<path d="M14.9,81.8c0,0.4,0.2,0.7,0.5,0.9l1.8,1c1.7,0.9,3,2.3,3.9,3.9l1,1.8c0.2,0.3,0.5,0.5,0.9,0.5c0.4,0,0.7-0.2,0.9-0.5l1-1.8
	c0.9-1.7,2.3-3,3.9-3.9l1.8-1c0.3-0.2,0.5-0.5,0.5-0.9s-0.2-0.7-0.5-0.9l-1.8-1c-1.7-0.9-3-2.3-3.9-3.9l-1-1.8
	c-0.4-0.6-1.4-0.6-1.8,0l-1,1.8c-0.9,1.7-2.3,3-3.9,3.9l-1.8,1C15.1,81.1,14.9,81.4,14.9,81.8z M18.2,81.6c2-1.1,3.6-2.7,4.7-4.7
	l0.1-0.2l0.1,0.2c1.1,2,2.7,3.6,4.7,4.7l0.2,0.1l-0.2,0.1c-2,1.1-3.6,2.7-4.7,4.7L23,86.9l-0.1-0.2c-1.1-2-2.7-3.6-4.7-4.7L18,81.8
	L18.2,81.6z"/>
<path d="M17,23.9c-0.3,0.2-0.5,0.5-0.5,0.9s0.2,0.7,0.5,0.9l2.3,1.2c2.1,1.2,3.8,2.9,5,5l1.2,2.3c0.2,0.3,0.5,0.5,0.9,0.5
	c0.4,0,0.7-0.2,0.9-0.5l1.2-2.3c1.1-2.1,2.9-3.8,5-5l2.3-1.2c0.3-0.2,0.5-0.5,0.5-0.9s-0.2-0.7-0.5-0.9l-2.3-1.2
	c-2.1-1.2-3.8-2.9-5-5l-1.2-2.3c-0.3-0.6-1.4-0.6-1.8,0l-1.2,2.3c-1.1,2.1-2.9,3.8-5,5L17,23.9z M20.3,24.4c2.4-1.3,4.4-3.3,5.8-5.8
	l0.4-0.7l0.4,0.7c1.3,2.4,3.3,4.4,5.8,5.8l0.7,0.4l-0.7,0.4c-2.4,1.3-4.4,3.3-5.8,5.8l-0.4,0.7L26,30.9c-1.3-2.4-3.3-4.4-5.8-5.8
	l-0.7-0.4L20.3,24.4z"/>
<path d="M54.3,69.7c-0.6,0-1,0.4-1,1v2.2h-2.2c-0.6,0-1,0.4-1,1s0.4,1,1,1h2.2v2.2c0,0.6,0.4,1,1,1s1-0.4,1-1v-2.2h2.2
	c0.6,0,1-0.4,1-1s-0.4-1-1-1h-2.2v-2.2C55.3,70.1,54.8,69.7,54.3,69.7z"/>
<path d="M57.4,15.9c-0.6,0-1,0.4-1,1V19h-2.2c-0.6,0-1,0.4-1,1s0.4,1,1,1h2.2v2.2c0,0.6,0.4,1,1,1s1-0.4,1-1V21h2.2c0.6,0,1-0.4,1-1
	s-0.4-1-1-1h-2.2v-2.2C58.4,16.3,58,15.9,57.4,15.9z"/>
<path d="M75.4,81.5c-0.6,0-1,0.4-1,1v2.2h-2.2c-0.6,0-1,0.4-1,1s0.4,1,1,1h2.2v2.2c0,0.6,0.4,1,1,1s1-0.4,1-1v-2.2h2.2
	c0.6,0,1-0.4,1-1s-0.4-1-1-1h-2.2v-2.2C76.4,81.9,75.9,81.5,75.4,81.5z"/>
<path d="M20.3,44.1c-0.6,0-1,0.4-1,1v2.2h-2.2c-0.6,0-1,0.4-1,1s0.4,1,1,1h2.2v2.2c0,0.6,0.4,1,1,1s1-0.4,1-1v-2.2h2.2
	c0.6,0,1-0.4,1-1s-0.4-1-1-1h-2.2v-2.2C21.3,44.5,20.9,44.1,20.3,44.1z"/>
<path d="M64.9,42c0.2,0,5.4-0.4,7.7-3.1c0.9-1,1.2-2.2,1.1-3.5c-0.1-1.3-0.7-2.4-1.7-3.2c-2.7-2.2-7.9-1.5-8.1-1.5
	c-4.5,0.6-8.6,2.6-11.6,5.8c0,0-0.1-0.1-0.1-0.1C49,33.7,47,30,46.5,26c-0.5-4.6-2.8-8.8-6.4-11.8c-3.9-3.2-8.9-4.6-14-4.1
	c-0.5,0.1-0.9,0.5-0.9,1.1c0.1,0.6,0.6,1,1.1,0.9c4.6-0.5,9,0.8,12.5,3.6c3.3,2.6,5.3,6.3,5.7,10.4C45,30.8,47.3,35,51,37.9
	c0,0,0.1,0.1,0.1,0.1c-2.8,3.7-4,8.2-3.4,12.7c0.5,4.8,2.9,9.1,6.7,12.2c3.9,3.2,8.7,4.6,13.6,4.2c0,0,0,0,0,0l0.1,0c0,0,0,0,0.1,0
	h0c0,0,0,0,0,0l1.6-0.2c4.6-0.5,9,0.8,12.5,3.6c3.3,2.6,5.3,6.3,5.7,10.4c0.1,0.5,0.5,0.9,1,0.9c0,0,0.1,0,0.1,0
	c0.5-0.1,0.9-0.5,0.9-1.1c-0.5-4.6-2.8-8.8-6.4-11.8c-3.9-3.2-8.9-4.6-14-4.1l-1.7,0.2c-4.4,0.4-8.7-0.9-12.2-3.7
	c-3.4-2.8-5.6-6.7-6-10.9c-0.5-4,0.6-8,3.1-11.3C56.3,41.5,60.6,42.5,64.9,42z M64.2,32.7c1.3-0.2,4.9-0.3,6.6,1.1
	c0.6,0.5,0.9,1.1,1,1.8c0.1,0.8-0.1,1.4-0.7,2c-1.5,1.7-5.1,2.3-6.4,2.4c-3.8,0.4-7.5-0.4-10.7-2.4C56.7,34.9,60.3,33.2,64.2,32.7z"
	/>
<path d="M14.5,35.2c2.9,2.9,6.7,4.5,10.8,4.5c0,0,0,0,0,0l1.4,0c3.5,0,6.8,1.5,9.4,4.1c2.5,2.6,3.9,6.1,4,9.7c0.1,3.4-1.2,6.6-3.2,9
	c-2.7-2.2-6.1-3.3-9.5-3.4c-0.2,0-4.4-0.1-6.6,1.9c-0.9,0.8-1.3,1.8-1.3,3c0,1.2,0.4,2.2,1.2,3.1c2.1,2.1,6.3,2,6.5,2
	c3.8-0.1,7.2-1.5,9.8-3.8c2.4,2.5,3.7,5.7,3.7,9.2c0,8.5,6.9,15.3,15.3,15.3c0.6,0,1-0.4,1-1c0-0.6-0.4-1-1-1c0,0,0,0,0,0
	c-7.3,0-13.3-6-13.3-13.3c0-4-1.5-7.8-4.3-10.6c2.4-2.8,3.9-6.4,3.8-10.4c0-4.1-1.7-8.1-4.5-11.1c-2.9-3-6.7-4.7-10.7-4.7
	c0,0,0,0,0,0h-0.1c0,0,0,0,0,0c0,0,0,0,0,0l-1.3,0c0,0,0,0,0,0c-3.5,0-6.9-1.4-9.4-3.9c-2.5-2.5-3.9-5.9-3.9-9.5c0-0.6-0.4-1-1-1
	c0,0,0,0,0,0c-0.6,0-1,0.4-1,1C10,28.4,11.6,32.3,14.5,35.2z M27,67.1c-1,0-3.8-0.2-5-1.4c-0.4-0.4-0.6-0.9-0.6-1.6
	c0-0.7,0.2-1.2,0.7-1.6c1.2-1.1,3.7-1.4,4.9-1.4c0.1,0,0.2,0,0.2,0c0,0,0,0,0,0c3,0,5.8,1,8.1,2.8C33.1,65.9,30.2,67.1,27,67.1z"/>
</svg>
