<?xml version="1.0" encoding="utf-8"?>
<!-- Generator: Adobe Illustrator 22.0.1, SVG Export Plug-In . SVG Version: 6.00 Build 0)  -->
<svg version="1.1" id="Layer_1" xmlns="http://www.w3.org/2000/svg" xmlns:xlink="http://www.w3.org/1999/xlink" x="0px" y="0px"
	 viewBox="0 0 20 20" style="enable-background:new 0 0 20 20;" xml:space="preserve">
<circle cx="8.7" cy="17.8" r="0.3"/>
<path d="M14.6,1H4.5C4,1,3.7,1.4,3.7,1.8v16c0,0,0,0,0,0c0,0.1,0.1,0.3,0.3,0.2c0,0,0,0,0.1,0l5.2-1.9c0.1,0,0.2-0.1,0.2-0.3v-1.3
	l1.2,0.3c0,0,0,0,0.1,0c0.1,0,0.2,0,0.2-0.1l1.9-2.7c0.1-0.2,0.2-0.5,0.2-0.7c-0.1-0.5-0.5-0.8-1-1c0.6-0.8,1-1.7,1-2.7
	c0-2.2-1.6-3.9-3.6-4V2.6c0-0.1-0.1-0.2-0.2-0.3L4.4,1.6c0,0,0.1,0,0.1,0h10.1c0.1,0,0.3,0.1,0.3,0.3v15.4c0,0.1-0.1,0.3-0.3,0.3
	H9.8c-0.1,0-0.3,0.1-0.3,0.3S9.6,18,9.8,18h4.8c0.4,0,0.8-0.4,0.8-0.8V1.8C15.4,1.4,15,1,14.6,1z M9,12.9c0.2,0.1,0.3,0.3,0.2,0.5
	c0,0,0,0,0,0S9.1,14,9.1,14l-0.7-0.2l0.1-1.1c0,0,0-0.1,0-0.1l0,0L9,12.9z M12.4,11.4c0,0.1,0,0.2-0.1,0.3l-1.8,2.6l-0.9-0.2
	c0,0,0.1-0.7,0.1-0.7c0-0.1,0-0.1,0-0.2l0,0c0.1,0.1,0.3,0,0.3-0.2c0-0.1,0-0.3-0.1-0.3l-0.6-0.3v-0.8c0.8,0,1.5-0.3,2.1-0.8h0.2
	C12,10.8,12.3,11.1,12.4,11.4z M12.4,7.7c0,1.9-1.4,3.4-3.1,3.5v-0.8c0.6,0,1.2-0.4,1.6-0.9C11,9.3,11,9.1,10.9,9
	c-0.1-0.1-0.3,0-0.4,0.1l0,0c-0.2,0.4-0.7,0.6-1.1,0.7V4.2C11.1,4.3,12.4,5.8,12.4,7.7z M8.8,12.2L8.8,12.2
	c-0.1-0.1-0.2-0.1-0.3-0.1c-0.2,0-0.4,0.2-0.5,0.4l-0.2-0.1c-0.1-0.1-0.3,0-0.4,0.1c-0.1,0.1,0,0.3,0.1,0.4L8,13.1l0,0l0,0.2H7.5
	c-0.1,0-0.3,0.1-0.3,0.3c0,0.1,0.1,0.3,0.3,0.3h0.4l0,0.3c0,0.1,0.1,0.2,0.2,0.3l0.7,0.2v1.2l-4.7,1.7V2.1l4.7,0.8V12.2z"/>
<path d="M10.8,7.7c0.5,0,0.9-0.4,0.9-0.9s-0.4-0.9-0.9-0.9c-0.5,0-0.9,0.4-0.9,0.9S10.3,7.7,10.8,7.7L10.8,7.7z M10.8,6.3
	c0.2,0,0.4,0.2,0.4,0.4c0,0.1,0,0.2-0.1,0.3c0,0,0,0,0,0c0-0.1-0.1-0.3-0.3-0.3c-0.1,0-0.3,0.1-0.3,0.3c0,0,0,0,0,0
	c-0.2-0.1-0.2-0.4,0-0.6C10.6,6.4,10.7,6.3,10.8,6.3z"/>
<path d="M8.1,10c0.1,0,0.3-0.1,0.3-0.3V9c0-0.1-0.1-0.3-0.3-0.3C7.9,8.7,7.8,8.8,7.8,9v0.8C7.8,9.9,7.9,10,8.1,10z"/>
<circle cx="2.9" cy="3.7" r="0.3"/>
<path d="M1.8,1C1.7,1,1.5,1.1,1.5,1.3v2.9c0,0.1,0.1,0.3,0.3,0.3s0.3-0.1,0.3-0.3V1.3C2.1,1.1,1.9,1,1.8,1z"/>
<path d="M2.9,1C2.7,1,2.6,1.1,2.6,1.3v1.3c0,0.1,0.1,0.3,0.3,0.3s0.3-0.1,0.3-0.3V1.3C3.1,1.1,3,1,2.9,1z"/>
<circle cx="16.2" cy="3.7" r="0.3"/>
<path d="M17.2,1C17.1,1,17,1.1,17,1.3v2.9c0,0.1,0.1,0.3,0.3,0.3c0.1,0,0.3-0.1,0.3-0.3V1.3C17.5,1.1,17.4,1,17.2,1z"/>
<path d="M16.2,1c-0.1,0-0.3,0.1-0.3,0.3v1.3c0,0.1,0.1,0.3,0.3,0.3c0.1,0,0.3-0.1,0.3-0.3V1.3C16.4,1.1,16.3,1,16.2,1z"/>
</svg>
